<svg xmlns="http://www.w3.org/2000/svg" xmlns:xlink="http://www.w3.org/1999/xlink" xmlns:lucid="lucid" width="768" height="580"><g transform="translate(-100 -60)" lucid:page-tab-id="MHi_ZNZzEG6L"><path d="M0 0h1870.4v1323.2H0z" fill="#fff"/><path d="M380 429.7L549.7 260l42.43 42.43-169.7 169.7z" fill="none"/><use xlink:href="#a" transform="matrix(0.7071067811865476,-0.7071067811865475,0.7071067811865475,0.7071067811865476,379.99999999999994,429.70562748477136) translate(94.75 33.6)"/><path d="M120 140h240v60H120z" fill="none"/><use xlink:href="#b" transform="matrix(1,0,0,1,120,140) translate(46.625 33.6)"/><use xlink:href="#c" transform="matrix(1,0,0,1,120,140) translate(87.525 33.6)"/><use xlink:href="#d" transform="matrix(1,0,0,1,120,140) translate(136.47500000000002 33.6)"/><path d="M475.78 418.06L668 561.76l-35.9 48.05-192.24-143.68z" fill="none"/><use xlink:href="#e" transform="matrix(0.8009861484073337,0.5986828793773752,-0.5986828793773752,0.8009861484073337,475.776131394459,418.06245284451285) translate(94.75 33.6)"/><path d="M608 162.98h240v60H608z" fill="none"/><use xlink:href="#f" transform="matrix(1,0,0,1,608,162.98044660919447) translate(114 33.6)"/><path d="M608 432.67h240v60H608z" fill="none"/><use xlink:href="#f" transform="matrix(1,0,0,1,608,432.6666666666667) translate(114 33.6)"/><path d="M608 280h240v60H608z" fill="none"/><use xlink:href="#g" transform="matrix(1,0,0,1,608,280) translate(114 33.6)"/><path d="M608 560h240v60H608z" fill="none"/><use xlink:href="#g" transform="matrix(1,0,0,1,608,560) translate(114 33.6)"/><path d="M390.6 165.96L597.04 288.4l-30.6 51.6L360 217.57z" fill="none"/><use xlink:href="#h" transform="matrix(0.8600913093568716,0.5101401175841614,-0.5101401175841614,0.8600913093568716,390.6084070550497,165.96089321838897) translate(94.75 33.6)"/><path d="M160 80h380v60H160z" stroke="#000" stroke-opacity="0" stroke-width="2" fill="#fff" fill-opacity="0"/><use xlink:href="#i" transform="matrix(1,0,0,1,165,85) translate(157.525 17.799999999999997)"/><use xlink:href="#j" transform="matrix(1,0,0,1,165,85) translate(6.80000000000004 39.4)"/><path d="M476 160c13.25 0 24 13.43 24 30s-10.75 30-24 30h-72c-13.25 0-24-13.43-24-30s10.75-30 24-30z" stroke="#000" stroke-width="2" fill="#fff"/><use xlink:href="#k" transform="matrix(1,0,0,1,385,165) translate(26.549999999999997 28.6)"/><path d="M606 280c13.25 0 24 13.43 24 30s-10.75 30-24 30h-72c-13.25 0-24-13.43-24-30s10.75-30 24-30z" stroke="#000" stroke-width="2" fill="#fff"/><use xlink:href="#l" transform="matrix(1,0,0,1,515,285) translate(26.549999999999997 28.6)"/><path d="M356 280c13.25 0 24 13.43 24 30s-10.75 30-24 30h-72c-13.25 0-24-13.43-24-30s10.75-30 24-30z" stroke="#000" stroke-width="2" fill="#fff"/><use xlink:href="#m" transform="matrix(1,0,0,1,265,285) translate(31.549999999999997 28.6)"/><path d="M516 420c13.25 0 24 13.43 24 30s-10.75 30-24 30h-72c-13.25 0-24-13.43-24-30s10.75-30 24-30z" stroke="#000" stroke-width="2" fill="#fff"/><use xlink:href="#n" transform="matrix(1,0,0,1,425,425) translate(26.549999999999997 28.6)"/><path d="M256 420c13.25 0 24 13.43 24 30s-10.75 30-24 30h-72c-13.25 0-24-13.43-24-30s10.75-30 24-30z" stroke="#000" stroke-width="2" fill="#fff"/><use xlink:href="#o" transform="matrix(1,0,0,1,165,425) translate(26.549999999999997 28.6)"/><path d="M436 560c13.25 0 24 13.43 24 30s-10.75 30-24 30h-72c-13.25 0-24-13.43-24-30s10.75-30 24-30z" stroke="#000" stroke-width="2" fill="#fff"/><use xlink:href="#p" transform="matrix(1,0,0,1,345,565) translate(26.549999999999997 28.6)"/><path d="M439.1 221.44l-118.2 57.12" stroke="#000" stroke-width="2" fill="none"/><path d="M439.5 222.35l-.64-1.35h3.44zM321.14 279h-3.44l2.8-1.35z"/><path d="M440.9 221.4l128.2 57.2M440.94 221.42L440 221" stroke="#000" stroke-width="2" fill="none"/><path d="M572.45 279h-3.57l.6-1.33z"/><path d="M480.76 418.35l88.48-76.7" stroke="#000" stroke-width="2" fill="none"/><path d="M481.36 419h-2.9l1.66-1.43zM569.88 342.43l-1.24-1.43h2.9z"/><path d="M479.28 481.7l-78.56 76.6" stroke="#000" stroke-width="2" fill="none"/><path d="M479.96 482.43l-1.4-1.43h2.87zM401.43 559h-2.86l1.47-1.43z"/><path d="M220.8 418.38l98.4-76.76" stroke="#000" stroke-width="2" fill="none"/><path d="M221.3 419h-2.93l1.82-1.42zM319.8 342.42l-1.1-1.42h2.93z"/><path d="M440.87 240.5l62.43 35.24M440.9 240.5l-.9-.5" stroke="#c92d39" stroke-width="2" fill="none"/><path d="M516.6 283.24l-14.7-2.97 4.55-8.08z" stroke="#c92d39" stroke-width="2" fill="#c92d39"/><path d="M529.88 341.4l-68.45 64.87" stroke="#c92d39" stroke-width="2" fill="none"/><path d="M530.6 340.72l1.34.1-1.4 1.33-1.37-1.45.3-.27z" fill="#c92d39"/><path d="M450.35 416.77l7.17-13.17 6.37 6.73z" stroke="#c92d39" stroke-width="2" fill="#c92d39"/><path d="M636 560c13.25 0 24 13.43 24 30s-10.75 30-24 30h-72c-13.25 0-24-13.43-24-30s10.75-30 24-30z" stroke="#c92d39" stroke-width="2" fill="#fff"/><use xlink:href="#q" transform="matrix(1,0,0,1,545,565) translate(26.549999999999997 28.6)"/><path d="M480.84 481.54l118.32 76.92" stroke="#c92d39" stroke-width="2" fill="none"/><path d="M480.3 482.4l-2.13-1.4h3.05zM601.83 559h-3.05l.9-1.4z" fill="#c92d39"/><defs><path fill="#c92d39" d="M110-160c48 1 74 30 74 79 0 53-28 85-80 85-65 0-83-55-86-122-5-90 50-162 133-122 14 7 22 21 27 39l-31 6c-5-40-67-38-82-6-9 19-15 44-15 74 11-20 30-34 60-33zm-7 138c34 0 49-23 49-58s-16-56-50-56c-29 0-50 16-49 49 1 36 15 65 50 65" id="r"/><path fill="#c92d39" d="M101-251c68 0 85 55 85 127S166 4 100 4C33 4 14-52 14-124c0-73 17-127 87-127zm-1 229c47 0 54-49 54-102s-4-102-53-102c-51 0-55 48-55 102 0 53 5 102 54 102" id="s"/><path fill="#c92d39" d="M18-100v-36l175-74v27L42-118l151 64v27" id="t"/><path fill="#c92d39" d="M64 0c3-98 48-159 88-221H18v-27h164v26C143-157 98-101 97 0H64" id="u"/><g id="a"><use transform="matrix(0.05,0,0,0.05,0,0)" xlink:href="#r"/><use transform="matrix(0.05,0,0,0.05,10,0)" xlink:href="#s"/><use transform="matrix(0.05,0,0,0.05,20,0)" xlink:href="#t"/><use transform="matrix(0.05,0,0,0.05,30.5,0)" xlink:href="#u"/><use transform="matrix(0.05,0,0,0.05,40.5,0)" xlink:href="#s"/></g><path fill="#c92d39" d="M190 0L58-211 59 0H30v-248h39L202-35l-2-213h31V0h-41" id="v"/><path fill="#c92d39" d="M100-194c63 0 86 42 84 106H49c0 40 14 67 53 68 26 1 43-12 49-29l28 8c-11 28-37 45-77 45C44 4 14-33 15-96c1-61 26-98 85-98zm52 81c6-60-76-77-97-28-3 7-6 17-6 28h103" id="w"/><path fill="#c92d39" d="M206 0h-36l-40-164L89 0H53L-1-190h32L70-26l43-164h34l41 164 42-164h31" id="x"/><g id="b"><use transform="matrix(0.05,0,0,0.05,0,0)" xlink:href="#v"/><use transform="matrix(0.05,0,0,0.05,12.950000000000001,0)" xlink:href="#w"/><use transform="matrix(0.05,0,0,0.05,22.950000000000003,0)" xlink:href="#x"/></g><path fill="#c92d39" d="M115-194c55 1 70 41 70 98S169 2 115 4C84 4 66-9 55-30l1 105H24l-1-265h31l2 30c10-21 28-34 59-34zm-8 174c40 0 45-34 45-75s-6-73-45-74c-42 0-51 32-51 76 0 43 10 73 51 73" id="y"/><path fill="#c92d39" d="M100-194c62-1 85 37 85 99 1 63-27 99-86 99S16-35 15-95c0-66 28-99 85-99zM99-20c44 1 53-31 53-75 0-43-8-75-51-75s-53 32-53 75 10 74 51 75" id="z"/><path fill="#c92d39" d="M24-231v-30h32v30H24zM24 0v-190h32V0H24" id="A"/><path fill="#c92d39" d="M117-194c89-4 53 116 60 194h-32v-121c0-31-8-49-39-48C34-167 62-67 57 0H25l-1-190h30c1 10-1 24 2 32 11-22 29-35 61-36" id="B"/><path fill="#c92d39" d="M59-47c-2 24 18 29 38 22v24C64 9 27 4 27-40v-127H5v-23h24l9-43h21v43h35v23H59v120" id="C"/><path fill="#c92d39" d="M33-154v-36h34v36H33zM33 0v-36h34V0H33" id="D"/><g id="c"><use transform="matrix(0.05,0,0,0.05,0,0)" xlink:href="#y"/><use transform="matrix(0.05,0,0,0.05,10,0)" xlink:href="#z"/><use transform="matrix(0.05,0,0,0.05,20,0)" xlink:href="#A"/><use transform="matrix(0.05,0,0,0.05,23.95,0)" xlink:href="#B"/><use transform="matrix(0.05,0,0,0.05,33.95,0)" xlink:href="#C"/><use transform="matrix(0.05,0,0,0.05,38.95,0)" xlink:href="#D"/></g><path fill="#c92d39" d="M87 75C49 33 22-17 22-94c0-76 28-126 65-167h31c-38 41-64 92-64 168S80 34 118 75H87" id="E"/><path fill="#c92d39" d="M68-38c1 34 0 65-14 84H32c9-13 17-26 17-46H33v-38h35" id="F"/><path fill="#c92d39" d="M33-261c38 41 65 92 65 168S71 34 33 75H2C39 34 66-17 66-93S39-220 2-261h31" id="G"/><g id="d"><use transform="matrix(0.05,0,0,0.05,0,0)" xlink:href="#E"/><use transform="matrix(0.05,0,0,0.05,5.95,0)" xlink:href="#r"/><use transform="matrix(0.05,0,0,0.05,15.949999999999998,0)" xlink:href="#s"/><use transform="matrix(0.05,0,0,0.05,25.950000000000003,0)" xlink:href="#F"/><use transform="matrix(0.05,0,0,0.05,30.950000000000003,0)" xlink:href="#r"/><use transform="matrix(0.05,0,0,0.05,40.95,0)" xlink:href="#s"/><use transform="matrix(0.05,0,0,0.05,50.95,0)" xlink:href="#G"/></g><path fill="#c92d39" d="M18-27v-27l151-64-151-65v-27l175 74v36" id="H"/><path fill="#c92d39" d="M54-142c48-35 137-8 131 61C196 18 31 33 14-55l32-4c7 23 22 37 52 37 35-1 51-22 54-58 4-55-73-65-99-34H22l8-134h141v27H59" id="I"/><g id="e"><use transform="matrix(0.05,0,0,0.05,0,0)" xlink:href="#r"/><use transform="matrix(0.05,0,0,0.05,10,0)" xlink:href="#s"/><use transform="matrix(0.05,0,0,0.05,20,0)" xlink:href="#H"/><use transform="matrix(0.05,0,0,0.05,30.5,0)" xlink:href="#I"/><use transform="matrix(0.05,0,0,0.05,40.5,0)" xlink:href="#s"/></g><path d="M195 0l-74-108L45 0H8l94-129-87-119h37l69 98 67-98h37l-84 118L233 0h-38" id="J"/><use transform="matrix(0.05,0,0,0.05,0,0)" xlink:href="#J" id="f"/><path d="M137-103V0h-34v-103L8-248h37l75 118 75-118h37" id="K"/><use transform="matrix(0.05,0,0,0.05,0,0)" xlink:href="#K" id="g"/><path fill="#c92d39" d="M126-127c33 6 58 20 58 59 0 88-139 92-164 29-3-8-5-16-6-25l32-3c6 27 21 44 54 44 32 0 52-15 52-46 0-38-36-46-79-43v-28c39 1 72-4 72-42 0-27-17-43-46-43-28 0-47 15-49 41l-32-3c6-42 35-63 81-64 48-1 79 21 79 65 0 36-21 52-52 59" id="L"/><g id="h"><use transform="matrix(0.05,0,0,0.05,0,0)" xlink:href="#r"/><use transform="matrix(0.05,0,0,0.05,10,0)" xlink:href="#s"/><use transform="matrix(0.05,0,0,0.05,20,0)" xlink:href="#H"/><use transform="matrix(0.05,0,0,0.05,30.5,0)" xlink:href="#L"/><use transform="matrix(0.05,0,0,0.05,40.5,0)" xlink:href="#s"/></g><path d="M30-248c87 1 191-15 191 75 0 78-77 80-158 76V0H30v-248zm33 125c57 0 124 11 124-50 0-59-68-47-124-48v98" id="M"/><path d="M100-194c62-1 85 37 85 99 1 63-27 99-86 99S16-35 15-95c0-66 28-99 85-99zM99-20c44 1 53-31 53-75 0-43-8-75-51-75s-53 32-53 75 10 74 51 75" id="N"/><path d="M24-231v-30h32v30H24zM24 0v-190h32V0H24" id="O"/><path d="M117-194c89-4 53 116 60 194h-32v-121c0-31-8-49-39-48C34-167 62-67 57 0H25l-1-190h30c1 10-1 24 2 32 11-22 29-35 61-36" id="P"/><path d="M59-47c-2 24 18 29 38 22v24C64 9 27 4 27-40v-127H5v-23h24l9-43h21v43h35v23H59v120" id="Q"/><path d="M135-143c-3-34-86-38-87 0 15 53 115 12 119 90S17 21 10-45l28-5c4 36 97 45 98 0-10-56-113-15-118-90-4-57 82-63 122-42 12 7 21 19 24 35" id="R"/><path d="M33-154v-36h34v36H33zM33 0v-36h34V0H33" id="S"/><g id="i"><use transform="matrix(0.05,0,0,0.05,0,0)" xlink:href="#M"/><use transform="matrix(0.05,0,0,0.05,12,0)" xlink:href="#N"/><use transform="matrix(0.05,0,0,0.05,22,0)" xlink:href="#O"/><use transform="matrix(0.05,0,0,0.05,25.950000000000003,0)" xlink:href="#P"/><use transform="matrix(0.05,0,0,0.05,35.95,0)" xlink:href="#Q"/><use transform="matrix(0.05,0,0,0.05,40.95,0)" xlink:href="#R"/><use transform="matrix(0.05,0,0,0.05,49.95,0)" xlink:href="#S"/></g><path d="M87 75C49 33 22-17 22-94c0-76 28-126 65-167h31c-38 41-64 92-64 168S80 34 118 75H87" id="T"/><path d="M126-127c33 6 58 20 58 59 0 88-139 92-164 29-3-8-5-16-6-25l32-3c6 27 21 44 54 44 32 0 52-15 52-46 0-38-36-46-79-43v-28c39 1 72-4 72-42 0-27-17-43-46-43-28 0-47 15-49 41l-32-3c6-42 35-63 81-64 48-1 79 21 79 65 0 36-21 52-52 59" id="U"/><path d="M101-251c68 0 85 55 85 127S166 4 100 4C33 4 14-52 14-124c0-73 17-127 87-127zm-1 229c47 0 54-49 54-102s-4-102-53-102c-51 0-55 48-55 102 0 53 5 102 54 102" id="V"/><path d="M68-38c1 34 0 65-14 84H32c9-13 17-26 17-46H33v-38h35" id="W"/><path d="M155-56V0h-30v-56H8v-25l114-167h33v167h35v25h-35zm-30-156c-27 46-58 90-88 131h88v-131" id="X"/><path d="M33-261c38 41 65 92 65 168S71 34 33 75H2C39 34 66-17 66-93S39-220 2-261h31" id="Y"/><path d="M54-142c48-35 137-8 131 61C196 18 31 33 14-55l32-4c7 23 22 37 52 37 35-1 51-22 54-58 4-55-73-65-99-34H22l8-134h141v27H59" id="Z"/><path d="M101-251c82-7 93 87 43 132L82-64C71-53 59-42 53-27h129V0H18c2-99 128-94 128-182 0-28-16-43-45-43s-46 15-49 41l-32-3c6-41 34-60 81-64" id="aa"/><path d="M27 0v-27h64v-190l-56 39v-29l58-41h29v221h61V0H27" id="ab"/><path d="M64 0c3-98 48-159 88-221H18v-27h164v26C143-157 98-101 97 0H64" id="ac"/><g id="j"><use transform="matrix(0.05,0,0,0.05,0,0)" xlink:href="#T"/><use transform="matrix(0.05,0,0,0.05,5.95,0)" xlink:href="#U"/><use transform="matrix(0.05,0,0,0.05,15.949999999999998,0)" xlink:href="#V"/><use transform="matrix(0.05,0,0,0.05,25.950000000000003,0)" xlink:href="#W"/><use transform="matrix(0.05,0,0,0.05,30.950000000000003,0)" xlink:href="#X"/><use transform="matrix(0.05,0,0,0.05,40.95,0)" xlink:href="#V"/><use transform="matrix(0.05,0,0,0.05,50.95,0)" xlink:href="#Y"/><use transform="matrix(0.05,0,0,0.05,56.900000000000006,0)" xlink:href="#W"/><use transform="matrix(0.05,0,0,0.05,61.900000000000006,0)" xlink:href="#T"/><use transform="matrix(0.05,0,0,0.05,67.85000000000001,0)" xlink:href="#Z"/><use transform="matrix(0.05,0,0,0.05,77.85000000000001,0)" xlink:href="#W"/><use transform="matrix(0.05,0,0,0.05,82.85000000000001,0)" xlink:href="#aa"/><use transform="matrix(0.05,0,0,0.05,92.85000000000001,0)" xlink:href="#Z"/><use transform="matrix(0.05,0,0,0.05,102.85000000000001,0)" xlink:href="#Y"/><use transform="matrix(0.05,0,0,0.05,108.80000000000001,0)" xlink:href="#W"/><use transform="matrix(0.05,0,0,0.05,113.80000000000001,0)" xlink:href="#T"/><use transform="matrix(0.05,0,0,0.05,119.75,0)" xlink:href="#ab"/><use transform="matrix(0.05,0,0,0.05,129.75,0)" xlink:href="#V"/><use transform="matrix(0.05,0,0,0.05,139.75,0)" xlink:href="#W"/><use transform="matrix(0.05,0,0,0.05,144.75,0)" xlink:href="#ab"/><use transform="matrix(0.05,0,0,0.05,154.75,0)" xlink:href="#aa"/><use transform="matrix(0.05,0,0,0.05,164.75,0)" xlink:href="#Y"/><use transform="matrix(0.05,0,0,0.05,170.7,0)" xlink:href="#W"/><use transform="matrix(0.05,0,0,0.05,175.7,0)" xlink:href="#T"/><use transform="matrix(0.05,0,0,0.05,181.64999999999998,0)" xlink:href="#ac"/><use transform="matrix(0.05,0,0,0.05,191.64999999999998,0)" xlink:href="#V"/><use transform="matrix(0.05,0,0,0.05,201.64999999999998,0)" xlink:href="#W"/><use transform="matrix(0.05,0,0,0.05,206.64999999999998,0)" xlink:href="#ac"/><use transform="matrix(0.05,0,0,0.05,216.64999999999998,0)" xlink:href="#V"/><use transform="matrix(0.05,0,0,0.05,226.64999999999998,0)" xlink:href="#Y"/><use transform="matrix(0.05,0,0,0.05,232.59999999999997,0)" xlink:href="#W"/><use transform="matrix(0.05,0,0,0.05,237.59999999999997,0)" xlink:href="#T"/><use transform="matrix(0.05,0,0,0.05,243.54999999999995,0)" xlink:href="#Z"/><use transform="matrix(0.05,0,0,0.05,253.54999999999995,0)" xlink:href="#V"/><use transform="matrix(0.05,0,0,0.05,263.54999999999995,0)" xlink:href="#W"/><use transform="matrix(0.05,0,0,0.05,268.54999999999995,0)" xlink:href="#U"/><use transform="matrix(0.05,0,0,0.05,278.54999999999995,0)" xlink:href="#V"/><use transform="matrix(0.05,0,0,0.05,288.54999999999995,0)" xlink:href="#Y"/><use transform="matrix(0.05,0,0,0.05,294.49999999999994,0)" xlink:href="#W"/><use transform="matrix(0.05,0,0,0.05,299.49999999999994,0)" xlink:href="#T"/><use transform="matrix(0.05,0,0,0.05,305.44999999999993,0)" xlink:href="#U"/><use transform="matrix(0.05,0,0,0.05,315.44999999999993,0)" xlink:href="#Z"/><use transform="matrix(0.05,0,0,0.05,325.44999999999993,0)" xlink:href="#W"/><use transform="matrix(0.05,0,0,0.05,330.44999999999993,0)" xlink:href="#X"/><use transform="matrix(0.05,0,0,0.05,340.44999999999993,0)" xlink:href="#Z"/><use transform="matrix(0.05,0,0,0.05,350.44999999999993,0)" xlink:href="#Y"/></g><g id="k"><use transform="matrix(0.05,0,0,0.05,0,0)" xlink:href="#T"/><use transform="matrix(0.05,0,0,0.05,5.95,0)" xlink:href="#U"/><use transform="matrix(0.05,0,0,0.05,15.949999999999998,0)" xlink:href="#V"/><use transform="matrix(0.05,0,0,0.05,25.950000000000003,0)" xlink:href="#W"/><use transform="matrix(0.05,0,0,0.05,30.950000000000003,0)" xlink:href="#X"/><use transform="matrix(0.05,0,0,0.05,40.95,0)" xlink:href="#V"/><use transform="matrix(0.05,0,0,0.05,50.95,0)" xlink:href="#Y"/></g><g id="l"><use transform="matrix(0.05,0,0,0.05,0,0)" xlink:href="#T"/><use transform="matrix(0.05,0,0,0.05,5.95,0)" xlink:href="#ac"/><use transform="matrix(0.05,0,0,0.05,15.949999999999998,0)" xlink:href="#V"/><use transform="matrix(0.05,0,0,0.05,25.950000000000003,0)" xlink:href="#W"/><use transform="matrix(0.05,0,0,0.05,30.950000000000003,0)" xlink:href="#ac"/><use transform="matrix(0.05,0,0,0.05,40.95,0)" xlink:href="#V"/><use transform="matrix(0.05,0,0,0.05,50.95,0)" xlink:href="#Y"/></g><g id="m"><use transform="matrix(0.05,0,0,0.05,0,0)" xlink:href="#T"/><use transform="matrix(0.05,0,0,0.05,5.95,0)" xlink:href="#Z"/><use transform="matrix(0.05,0,0,0.05,15.949999999999998,0)" xlink:href="#W"/><use transform="matrix(0.05,0,0,0.05,20.95,0)" xlink:href="#aa"/><use transform="matrix(0.05,0,0,0.05,30.950000000000003,0)" xlink:href="#Z"/><use transform="matrix(0.05,0,0,0.05,40.95,0)" xlink:href="#Y"/></g><g id="n"><use transform="matrix(0.05,0,0,0.05,0,0)" xlink:href="#T"/><use transform="matrix(0.05,0,0,0.05,5.95,0)" xlink:href="#Z"/><use transform="matrix(0.05,0,0,0.05,15.949999999999998,0)" xlink:href="#V"/><use transform="matrix(0.05,0,0,0.05,25.950000000000003,0)" xlink:href="#W"/><use transform="matrix(0.05,0,0,0.05,30.950000000000003,0)" xlink:href="#U"/><use transform="matrix(0.05,0,0,0.05,40.95,0)" xlink:href="#V"/><use transform="matrix(0.05,0,0,0.05,50.95,0)" xlink:href="#Y"/></g><g id="o"><use transform="matrix(0.05,0,0,0.05,0,0)" xlink:href="#T"/><use transform="matrix(0.05,0,0,0.05,5.95,0)" xlink:href="#ab"/><use transform="matrix(0.05,0,0,0.05,15.949999999999998,0)" xlink:href="#V"/><use transform="matrix(0.05,0,0,0.05,25.950000000000003,0)" xlink:href="#W"/><use transform="matrix(0.05,0,0,0.05,30.950000000000003,0)" xlink:href="#ab"/><use transform="matrix(0.05,0,0,0.05,40.95,0)" xlink:href="#aa"/><use transform="matrix(0.05,0,0,0.05,50.95,0)" xlink:href="#Y"/></g><g id="p"><use transform="matrix(0.05,0,0,0.05,0,0)" xlink:href="#T"/><use transform="matrix(0.05,0,0,0.05,5.95,0)" xlink:href="#U"/><use transform="matrix(0.05,0,0,0.05,15.949999999999998,0)" xlink:href="#Z"/><use transform="matrix(0.05,0,0,0.05,25.950000000000003,0)" xlink:href="#W"/><use transform="matrix(0.05,0,0,0.05,30.950000000000003,0)" xlink:href="#X"/><use transform="matrix(0.05,0,0,0.05,40.95,0)" xlink:href="#Z"/><use transform="matrix(0.05,0,0,0.05,50.95,0)" xlink:href="#Y"/></g><g id="q"><use transform="matrix(0.05,0,0,0.05,0,0)" xlink:href="#E"/><use transform="matrix(0.05,0,0,0.05,5.95,0)" xlink:href="#r"/><use transform="matrix(0.05,0,0,0.05,15.949999999999998,0)" xlink:href="#s"/><use transform="matrix(0.05,0,0,0.05,25.950000000000003,0)" xlink:href="#F"/><use transform="matrix(0.05,0,0,0.05,30.950000000000003,0)" xlink:href="#r"/><use transform="matrix(0.05,0,0,0.05,40.95,0)" xlink:href="#s"/><use transform="matrix(0.05,0,0,0.05,50.95,0)" xlink:href="#G"/></g></defs></g></svg>