<svg xmlns="http://www.w3.org/2000/svg" xmlns:xlink="http://www.w3.org/1999/xlink" xmlns:lucid="lucid" width="600" height="660"><g transform="translate(-120 -100)" lucid:page-tab-id="3Ik_zrXHa5jE"><path d="M0 0h1870.4v1323.2H0z" fill="#fff"/><path d="M140 180h560v480H140z" stroke="#000" stroke-width="2" fill="#fff"/><path d="M180 320h240v60H180z" fill="none"/><use xlink:href="#a" transform="matrix(1,0,0,1,180,320) translate(104.7 33.6)"/><path d="M280 390h240v60H280z" fill="none"/><use xlink:href="#b" transform="matrix(1,0,0,1,280,390) translate(104.225 33.6)"/><path d="M140 440h240v60H140z" fill="none"/><use xlink:href="#c" transform="matrix(1,0,0,1,140,440) translate(104.225 33.6)"/><path d="M180 120h460.67v60H180z" fill="none"/><use xlink:href="#d" transform="matrix(1,0,0,1,180,120) translate(9.549999999999955 33.6)"/><use xlink:href="#e" transform="matrix(1,0,0,1,180,120) translate(175.35 33.6)"/><use xlink:href="#f" transform="matrix(1,0,0,1,180,120) translate(196.79999999999998 33.6)"/><use xlink:href="#g" transform="matrix(1,0,0,1,180,120) translate(237.7 33.6)"/><use xlink:href="#h" transform="matrix(1,0,0,1,180,120) translate(316.6 33.6)"/><use xlink:href="#i" transform="matrix(1,0,0,1,180,120) translate(417.45000000000005 33.6)"/><use xlink:href="#j" transform="matrix(1,0,0,1,180,120) translate(439.45000000000005 33.6)"/><path d="M300 680h240v60H300z" fill="none"/><use xlink:href="#k" transform="matrix(1,0,0,1,300,680) translate(25.47500000000001 33.6)"/><use xlink:href="#l" transform="matrix(1,0,0,1,300,680) translate(62.025000000000006 33.6)"/><use xlink:href="#m" transform="matrix(1,0,0,1,300,680) translate(77.525 33.6)"/><use xlink:href="#n" transform="matrix(1,0,0,1,300,680) translate(171.97500000000002 33.6)"/><use xlink:href="#o" transform="matrix(1,0,0,1,300,680) translate(201.575 33.6)"/><path d="M300 280h240v60H300z" fill="none"/><use xlink:href="#p" transform="matrix(1,0,0,1,300,280) translate(104.7 33.6)"/><path d="M320 390c0 5.52-4.48 10-10 10s-10-4.48-10-10 4.48-10 10-10 10 4.48 10 10z" stroke="#000" stroke-width="2" fill="#c92d39"/><path d="M500 490c0 5.52-4.48 10-10 10s-10-4.48-10-10 4.48-10 10-10 10 4.48 10 10zM280 330c0 5.52-4.48 10-10 10s-10-4.48-10-10 4.48-10 10-10 10 4.48 10 10zM240 550c0 5.52-4.48 10-10 10s-10-4.48-10-10 4.48-10 10-10 10 4.48 10 10zM600 230c0 5.52-4.48 10-10 10s-10-4.48-10-10 4.48-10 10-10 10 4.48 10 10z" stroke="#000" stroke-width="2" fill="#666"/><path d="M314 180v480" stroke="#000" stroke-width="2" fill="none"/><path d="M315 180.03h-2V179h2zM315 661h-2v-1.03h2z"/><path d="M313 321.33H140M312.97 321.33H314" stroke="#000" stroke-width="2" fill="none"/><path d="M140.03 322.33H139v-2h1.03z"/><path d="M222 660V322.33" stroke="#000" stroke-width="2" fill="none"/><path d="M223 661h-2v-1.03h2z"/><path d="M222 322.36v-1.03M315 494.66l385-1.32M315.03 494.66H314" stroke="#000" stroke-width="2" fill="none"/><path d="M701 494.33h-1.02v-2H701z"/><path d="M579.34 180l1.32 312.75" stroke="#000" stroke-width="2" fill="none"/><path d="M580.34 180.02h-2V179h2z"/><path d="M580.66 492.72v1.03M281.52 330.86l31.97 53.6" stroke="#000" stroke-width="2" fill="none"/><path d="M282.4 330.37l-1.6.95.2-1.3-.32-2.52z"/><path d="M313.47 384.45l.53.88M241.4 549.1l72.2-162.85" stroke="#000" stroke-width="2" fill="none"/><path d="M242.34 549.47l-1.63 3.68-.18-.1.5-3.04-.17-1.2z"/><path d="M313.58 386.27l.42-.94M478.15 489.46l-163.3-103.6" stroke="#000" stroke-width="2" fill="none"/><path d="M479.13 488.9L479 490l.2 1.32-1.6-1.02 1.06-1.7z"/><path d="M314.87 385.88l-.87-.55M578.7 232.5L314.86 384.82M578.67 232.5l.9-.5M314.9 384.82l-.9.5" stroke="#000" stroke-width="2" fill="none"/><defs><path d="M32 76v-337h29V76H32" id="q"/><path d="M160-131c35 5 61 23 61 61C221 17 115-2 30 0v-248c76 3 177-17 177 60 0 33-19 50-47 57zm-97-11c50-1 110 9 110-42 0-47-63-36-110-37v79zm0 115c55-2 124 14 124-45 0-56-70-42-124-44v89" id="r"/><g id="a"><use transform="matrix(0.05,0,0,0.05,0,0)" xlink:href="#q"/><use transform="matrix(0.05,0,0,0.05,4.65,0)" xlink:href="#q"/><use transform="matrix(0.05,0,0,0.05,9.3,0)" xlink:href="#r"/><use transform="matrix(0.05,0,0,0.05,21.3,0)" xlink:href="#q"/><use transform="matrix(0.05,0,0,0.05,25.950000000000003,0)" xlink:href="#q"/></g><path d="M212-179c-10-28-35-45-73-45-59 0-87 40-87 99 0 60 29 101 89 101 43 0 62-24 78-52l27 14C228-24 195 4 139 4 59 4 22-46 18-125c-6-104 99-153 187-111 19 9 31 26 39 46" id="s"/><g id="b"><use transform="matrix(0.05,0,0,0.05,0,0)" xlink:href="#q"/><use transform="matrix(0.05,0,0,0.05,4.65,0)" xlink:href="#q"/><use transform="matrix(0.05,0,0,0.05,9.3,0)" xlink:href="#s"/><use transform="matrix(0.05,0,0,0.05,22.25,0)" xlink:href="#q"/><use transform="matrix(0.05,0,0,0.05,26.899999999999995,0)" xlink:href="#q"/></g><path d="M30-248c118-7 216 8 213 122C240-48 200 0 122 0H30v-248zM63-27c89 8 146-16 146-99s-60-101-146-95v194" id="t"/><g id="c"><use transform="matrix(0.05,0,0,0.05,0,0)" xlink:href="#q"/><use transform="matrix(0.05,0,0,0.05,4.65,0)" xlink:href="#q"/><use transform="matrix(0.05,0,0,0.05,9.3,0)" xlink:href="#t"/><use transform="matrix(0.05,0,0,0.05,22.25,0)" xlink:href="#q"/><use transform="matrix(0.05,0,0,0.05,26.899999999999995,0)" xlink:href="#q"/></g><path d="M205 0l-28-72H64L36 0H1l101-248h38L239 0h-34zm-38-99l-47-123c-12 45-31 82-46 123h93" id="u"/><path d="M18-27v-27l151-64-151-65v-27l175 74v36" id="v"/><g id="d"><use transform="matrix(0.05,0,0,0.05,0,0)" xlink:href="#q"/><use transform="matrix(0.05,0,0,0.05,4.65,0)" xlink:href="#q"/><use transform="matrix(0.05,0,0,0.05,9.3,0)" xlink:href="#u"/><use transform="matrix(0.05,0,0,0.05,21.3,0)" xlink:href="#q"/><use transform="matrix(0.05,0,0,0.05,25.950000000000003,0)" xlink:href="#q"/><use transform="matrix(0.05,0,0,0.05,30.6,0)" xlink:href="#v"/><use transform="matrix(0.05,0,0,0.05,41.1,0)" xlink:href="#q"/><use transform="matrix(0.05,0,0,0.05,45.75,0)" xlink:href="#q"/><use transform="matrix(0.05,0,0,0.05,50.4,0)" xlink:href="#t"/><use transform="matrix(0.05,0,0,0.05,63.35,0)" xlink:href="#q"/><use transform="matrix(0.05,0,0,0.05,68,0)" xlink:href="#q"/><use transform="matrix(0.05,0,0,0.05,72.65,0)" xlink:href="#v"/><use transform="matrix(0.05,0,0,0.05,83.15,0)" xlink:href="#q"/><use transform="matrix(0.05,0,0,0.05,87.80000000000001,0)" xlink:href="#q"/><use transform="matrix(0.05,0,0,0.05,92.45000000000002,0)" xlink:href="#s"/><use transform="matrix(0.05,0,0,0.05,105.40000000000003,0)" xlink:href="#q"/><use transform="matrix(0.05,0,0,0.05,110.05000000000003,0)" xlink:href="#q"/><use transform="matrix(0.05,0,0,0.05,114.70000000000003,0)" xlink:href="#v"/><use transform="matrix(0.05,0,0,0.05,125.20000000000003,0)" xlink:href="#q"/><use transform="matrix(0.05,0,0,0.05,129.85000000000002,0)" xlink:href="#q"/><use transform="matrix(0.05,0,0,0.05,134.50000000000003,0)" xlink:href="#r"/><use transform="matrix(0.05,0,0,0.05,146.50000000000003,0)" xlink:href="#q"/><use transform="matrix(0.05,0,0,0.05,151.15000000000003,0)" xlink:href="#q"/></g><path d="M16-82v-28h88v28H16" id="w"/><g id="e"><use transform="matrix(0.05,0,0,0.05,0,0)" xlink:href="#w"/><use transform="matrix(0.05,0,0,0.05,5.95,0)" xlink:href="#v"/></g><path d="M127-220V0H93v-220H8v-28h204v28h-85" id="x"/><path d="M197 0v-115H63V0H30v-248h33v105h134v-105h34V0h-34" id="y"/><path d="M30 0v-248h187v28H63v79h144v27H63v87h162V0H30" id="z"/><g id="f"><use transform="matrix(0.05,0,0,0.05,0,0)" xlink:href="#x"/><use transform="matrix(0.05,0,0,0.05,10.950000000000001,0)" xlink:href="#y"/><use transform="matrix(0.05,0,0,0.05,23.900000000000002,0)" xlink:href="#z"/></g><path d="M190 0L58-211 59 0H30v-248h39L202-35l-2-213h31V0h-41" id="A"/><path d="M233-177c-1 41-23 64-60 70L243 0h-38l-65-103H63V0H30v-248c88 3 205-21 203 71zM63-129c60-2 137 13 137-47 0-61-80-42-137-45v92" id="B"/><path d="M185-189c-5-48-123-54-124 2 14 75 158 14 163 119 3 78-121 87-175 55-17-10-28-26-33-46l33-7c5 56 141 63 141-1 0-78-155-14-162-118-5-82 145-84 179-34 5 7 8 16 11 25" id="C"/><g id="g"><use transform="matrix(0.05,0,0,0.05,0,0)" xlink:href="#A"/><use transform="matrix(0.05,0,0,0.05,12.950000000000001,0)" xlink:href="#z"/><use transform="matrix(0.05,0,0,0.05,24.950000000000003,0)" xlink:href="#u"/><use transform="matrix(0.05,0,0,0.05,36.95,0)" xlink:href="#B"/><use transform="matrix(0.05,0,0,0.05,49.900000000000006,0)" xlink:href="#z"/><use transform="matrix(0.05,0,0,0.05,61.900000000000006,0)" xlink:href="#C"/></g><path d="M33 0v-248h34V0H33" id="D"/><path d="M143 4C61 4 22-44 18-125c-5-107 100-154 193-111 17 8 29 25 37 43l-32 9c-13-25-37-40-76-40-61 0-88 39-88 99 0 61 29 100 91 101 35 0 62-11 79-27v-45h-74v-28h105v86C228-13 192 4 143 4" id="E"/><path d="M140-251c81 0 123 46 123 126C263-46 219 4 140 4 59 4 17-45 17-125s42-126 123-126zm0 227c63 0 89-41 89-101s-29-99-89-99c-61 0-89 39-89 99S79-25 140-24" id="F"/><g id="h"><use transform="matrix(0.05,0,0,0.05,0,0)" xlink:href="#A"/><use transform="matrix(0.05,0,0,0.05,12.950000000000001,0)" xlink:href="#z"/><use transform="matrix(0.05,0,0,0.05,24.950000000000003,0)" xlink:href="#D"/><use transform="matrix(0.05,0,0,0.05,29.950000000000003,0)" xlink:href="#E"/><use transform="matrix(0.05,0,0,0.05,43.95,0)" xlink:href="#y"/><use transform="matrix(0.05,0,0,0.05,56.900000000000006,0)" xlink:href="#r"/><use transform="matrix(0.05,0,0,0.05,68.9,0)" xlink:href="#F"/><use transform="matrix(0.05,0,0,0.05,82.9,0)" xlink:href="#B"/></g><g id="i"><use transform="matrix(0.05,0,0,0.05,0,0)" xlink:href="#D"/><use transform="matrix(0.05,0,0,0.05,5,0)" xlink:href="#C"/></g><use transform="matrix(0.05,0,0,0.05,0,0)" xlink:href="#r" id="j"/><g id="k"><use transform="matrix(0.05,0,0,0.05,0,0)" xlink:href="#q"/><use transform="matrix(0.05,0,0,0.05,4.65,0)" xlink:href="#q"/><use transform="matrix(0.05,0,0,0.05,9.3,0)" xlink:href="#A"/><use transform="matrix(0.05,0,0,0.05,22.25,0)" xlink:href="#q"/><use transform="matrix(0.05,0,0,0.05,26.899999999999995,0)" xlink:href="#q"/></g><path d="M18-150v-26h174v26H18zm0 90v-26h174v26H18" id="G"/><use transform="matrix(0.05,0,0,0.05,0,0)" xlink:href="#G" id="l"/><g id="m"><use transform="matrix(0.05,0,0,0.05,0,0)" xlink:href="#t"/><use transform="matrix(0.05,0,0,0.05,12.950000000000001,0)" xlink:href="#D"/><use transform="matrix(0.05,0,0,0.05,17.950000000000003,0)" xlink:href="#C"/><use transform="matrix(0.05,0,0,0.05,29.950000000000003,0)" xlink:href="#x"/><use transform="matrix(0.05,0,0,0.05,39.550000000000004,0)" xlink:href="#u"/><use transform="matrix(0.05,0,0,0.05,51.550000000000004,0)" xlink:href="#A"/><use transform="matrix(0.05,0,0,0.05,64.5,0)" xlink:href="#s"/><use transform="matrix(0.05,0,0,0.05,77.45,0)" xlink:href="#z"/></g><g id="n"><use transform="matrix(0.05,0,0,0.05,0,0)" xlink:href="#x"/><use transform="matrix(0.05,0,0,0.05,10.600000000000001,0)" xlink:href="#F"/></g><use transform="matrix(0.05,0,0,0.05,0,0)" xlink:href="#A" id="o"/><g id="p"><use transform="matrix(0.05,0,0,0.05,0,0)" xlink:href="#q"/><use transform="matrix(0.05,0,0,0.05,4.65,0)" xlink:href="#q"/><use transform="matrix(0.05,0,0,0.05,9.3,0)" xlink:href="#u"/><use transform="matrix(0.05,0,0,0.05,21.3,0)" xlink:href="#q"/><use transform="matrix(0.05,0,0,0.05,25.950000000000003,0)" xlink:href="#q"/></g></defs></g></svg>